<?xml version="1.0" ?><svg id="katman_1" style="enable-background:new 0 0 512 512;" version="1.1" viewBox="0 0 512 512" xml:space="preserve" xmlns="http://www.w3.org/2000/svg" xmlns:xlink="http://www.w3.org/1999/xlink"><style type="text/css">
	.st0{fill:#905AA1;}
	.st1{fill:#7F4997;}
	.st2{fill:#FFFFFF;}
</style><g><g><circle class="st0" cx="256" cy="256" r="250"/></g><path class="st1" d="M506,256c0-7.6-0.4-15.2-1-22.6c-0.1-0.2-0.3-0.3-0.4-0.5c-33.6-33.6-67.2-67.2-100.8-100.8   c-3.2-3.2-6.8-4.7-11.4-4.7c-38.7,0.1-77.4,0-116.2,0.1c-1.5,0-2.7-0.4-3.8-1.5c-3.4-3.6-7-7-10.5-10.5c-2.2-2.2-4.7-3-7.7-1.8   c-2.9,1.2-4.2,3.5-4.3,6.6c-0.1,2.3,0,4.6,0,7.2c-1.3,0-2.3,0-3.2,0c-42.1,0-84.2,0-126.2,0c-6.9,0-13.8,5.7-13.7,13.6   c0,4,0,8,0,12c0,4.1,1.4,7.5,4.3,10.3c3,3,5.9,6.1,9,9c1.5,1.4,2,2.8,2,4.8c-0.1,46.5,0,93-0.1,139.4c0,4.8,1.6,8.6,5,12   c57.4,57.3,114.7,114.7,172.1,172c0.3,0.3,0.6,0.5,0.8,0.9c0.2,0.3,0.4,0.5,0.6,0.6C417.4,481,506,378.9,506,256z"/><path class="st2" d="M392.6,127H262.7v-7.6c0-3.7-3-6.7-6.7-6.7c-3.7,0-6.7,3-6.7,6.7v7.6H119.4c-7.4,0-13.4,6-13.4,13.4v12.5   c0,7.4,6,13.4,13.4,13.4h1.8v151.1c0,7.4,6,13.4,13.4,13.4h114.6v19.7l-49.8,36.5c-3,2.2-3.6,6.4-1.4,9.4c2.2,3,6.4,3.6,9.4,1.4   l41.9-30.7v25.3c0,3.7,3,6.7,6.7,6.7c3.7,0,6.7-3,6.7-6.7v-25.3l41.9,30.7c1.2,0.9,2.6,1.3,4,1.3c2.1,0,4.1-1,5.4-2.7   c2.2-3,1.5-7.2-1.4-9.4l-49.8-36.5v-19.7h114.6c7.4,0,13.4-6,13.4-13.4V166.4h1.8c7.4,0,13.4-6,13.4-13.4v-12.5   C406,133.1,400,127,392.6,127z M377.3,317.4H134.7V166.4h242.6V317.4z M392.6,152.9H119.4v-12.5h273.1V152.9z"/></g></svg>