<?xml version="1.0" ?><svg id="katman_1" style="enable-background:new 0 0 512 512;" version="1.1" viewBox="0 0 512 512" xml:space="preserve" xmlns="http://www.w3.org/2000/svg" xmlns:xlink="http://www.w3.org/1999/xlink"><style type="text/css">
	.st0{fill:#95A5A6;}
	.st1{fill:#7E8C8D;}
	.st2{fill:#FFFFFF;}
</style><g><g><circle class="st0" cx="256" cy="256" r="250"/></g><path class="st1" d="M506,256c0-8.3-0.4-16.5-1.2-24.5c-0.2-0.3-0.5-0.6-0.8-1c-33.7-33.6-67.4-67.3-101-101   c-4.6-4.6-9.8-6.7-16.3-6.7c-43.3,0.1-86.6,0-129.8,0c-25.1,0-50.2,0-75.4,0c-18.5,0-37,0-55.4,0c-3.2,0-6.4,0.4-9.3,2   c-6.8,3.7-10.1,9.5-10.1,17.2c0,60.1,0,120.2,0,180.2c0,5.8,2,10.5,6.1,14.6c36.7,36.6,73.3,73.3,110,109.9   c19.1,19.1,38.1,38.1,57.2,57.2c0.3,0.3,0.6,0.6,1,0.8C407.3,492.3,506,385.7,506,256z"/><path class="st2" d="M387.9,122.4H124.1c-10,0-18.1,8.1-18.1,18.1v182.1c0,10,8.1,18.1,18.1,18.1h90.4v13.2   c0,12.1-9.8,21.9-21.9,21.9h-19.9c-3.8,0-6.9,3.1-6.9,6.9c0,3.8,3.1,6.9,6.9,6.9h166.7c3.8,0,6.9-3.1,6.9-6.9   c0-3.8-3.1-6.9-6.9-6.9h-19.9c-12.1,0-21.9-9.8-21.9-21.9v-13.2h90.4c10,0,18.1-8.1,18.1-18.1V140.5   C406,130.5,397.9,122.4,387.9,122.4z M124.1,136.2h263.8c2.4,0,4.3,1.9,4.3,4.3v131.9H119.8V140.5   C119.8,138.1,121.8,136.2,124.1,136.2z M283.7,353.9c0,8.3,2.8,15.9,7.5,21.9h-70.4c4.7-6.1,7.5-13.7,7.5-21.9v-13.2h55.3   L283.7,353.9L283.7,353.9z M387.9,326.9H124.1c-2.4,0-4.3-1.9-4.3-4.3v-36.3h272.3v36.3C392.2,325,390.2,326.9,387.9,326.9z"/></g></svg>